PathFileType	4	(X/Y/Z)	c:/Users/goper/Files/vsCode/490R/osim_files/C11/C11_Static02.trc
DataRate	CameraRate	NumFrames	NumMarkers	Units                	OrigDataRate	OrigDataStartFrame	OrigNumFrames
120.00	120.00	8	36	mm	120.0	856	978
                Frame#	Time	LPSI			LASI			LTH1			LTH2			LTH3			LTH4			LLFE			LMFE			LSH1			LSH2			LSH3			LSH4			LLMA			LMMA			LCAL			LMTP			LTOE			LMTP			RPSI			RASI			RTH1			RTH2			RTH3			RTH4			RLFE			RMFE			RSH1			RSH2			RSH3			RSH4			RLMA			RMMA			RCAL			RMTP			RTOE			RMTP		
		X1	Y1	Z1	X2	Y2	Z2	X3	Y3	Z3	X4	Y4	Z4	X5	Y5	Z5	X6	Y6	Z6	X7	Y7	Z7	X8	Y8	Z8	X9	Y9	Z9	X10	Y10	Z10	X11	Y11	Z11	X12	Y12	Z12	X13	Y13	Z13	X14	Y14	Z14	X15	Y15	Z15	X16	Y16	Z16	X17	Y17	Z17	X18	Y18	Z18	X19	Y19	Z19	X20	Y20	Z20	X21	Y21	Z21	X22	Y22	Z22	X23	Y23	Z23	X24	Y24	Z24	X25	Y25	Z25	X26	Y26	Z26	X27	Y27	Z27	X28	Y28	Z28	X29	Y29	Z29	X30	Y30	Z30	X31	Y31	Z31	X32	Y32	Z32	X33	Y33	Z33	X34	Y34	Z34	X35	Y35	Z35	X36	Y36	Z36

856	7.12500	-369.85437	1018.84698	500.79202	-190.02014	1007.31805	441.94962	-301.76324	600.34772	352.38708	-292.11081	553.73260	355.74326	-242.01338	608.14923	358.99585	-242.13016	561.51385	364.41614	-297.53583	515.01636	354.85745	-286.35596	503.22180	465.86288	-356.06741	410.78967	341.50577	-356.40967	366.19461	338.86011	-294.34067	406.09216	334.55042	-303.05090	362.02100	333.05493	-336.21484	94.91011	378.72449	-302.01074	110.51922	469.84897	-391.88022	58.90877	435.45108	-225.53206	39.92349	340.71466	-149.88892	56.70735	405.87277	-187.21980	44.76551	454.24622	-372.70270	1029.48706	586.31000	-217.49001	1000.75873	678.28070	-324.76385	603.42487	727.65857	-317.34555	560.15820	724.77063	-262.40118	607.14276	721.73157	-265.04739	564.18262	721.19122	-302.79691	519.12555	716.21576	-317.99496	492.32535	602.50507	-375.15427	412.57132	732.16602	-372.13599	366.67426	733.54858	-315.00403	408.82480	732.55182	-318.87082	362.94357	736.44104	-357.64862	97.57121	703.66498	-318.24582	105.89352	613.14679	-413.05829	59.89942	643.14081	-195.10068	49.01121	652.52014	-198.16171	61.67080	702.73615	-246.84523	39.40763	757.49579
857	7.13333	-369.90631	1018.87451	500.89096	-190.01859	1007.22797	441.94867	-301.86057	600.36060	352.38290	-292.20929	553.73920	355.74072	-242.15112	608.16388	358.98172	-242.29559	561.52661	364.41113	-297.63019	515.02069	354.84726	-286.31009	503.34280	465.86737	-355.90649	410.72549	341.60526	-356.44623	366.18576	338.87888	-294.41547	406.10587	334.56656	-303.12796	362.02063	333.06305	-336.20023	94.93977	378.72632	-301.93597	110.58955	469.80652	-391.84537	58.96756	435.39874	-225.48573	39.86985	340.76416	-149.85466	56.77446	405.81778	-187.16473	44.85653	454.21283	-372.74231	1029.51953	586.39362	-217.39452	1000.84241	678.23920	-324.69131	603.50226	727.67969	-317.29520	560.23010	724.77600	-262.30112	607.23474	721.69592	-264.97794	564.23975	721.15594	-302.72711	519.18347	716.22620	-318.03513	492.35397	602.51190	-375.14334	412.61993	732.15619	-372.08972	366.75217	733.53473	-314.76703	409.03336	732.57794	-318.79358	363.00668	736.41895	-357.59546	97.64795	703.63831	-318.23749	105.90346	613.13263	-413.30322	59.83012	643.31195	-195.04985	49.08223	652.47302	-198.07204	61.73351	702.69531	-246.77982	39.46693	757.45874
858	7.14167	-369.98730	1018.84125	500.97162	-190.19893	1007.25128	441.88681	-302.03522	600.36920	352.37134	-292.34436	553.75031	355.73502	-242.28220	608.15906	358.96515	-242.44188	561.53180	364.39316	-297.73364	515.01294	354.85181	-286.41922	503.35468	465.81052	-356.52493	410.52582	341.85809	-356.52060	366.15662	338.90002	-294.48962	406.08643	334.58066	-303.19757	362.02505	333.06918	-336.22113	94.94639	378.71121	-301.93860	110.60049	469.74994	-391.89758	59.00929	435.38007	-225.48120	39.97509	340.64883	-149.85464	56.80521	405.81113	-187.15567	44.90322	454.17331	-372.77731	1029.52258	586.47028	-217.60696	1000.86969	678.07489	-324.71997	603.47986	727.66309	-317.34283	560.22137	724.75726	-262.34244	607.21942	721.68384	-265.01343	564.22827	721.15118	-302.76419	519.19312	716.21368	-318.08182	492.35822	602.48846	-375.15677	412.61072	732.13220	-372.13715	366.76221	733.50781	-314.72101	409.11877	732.56238	-318.82889	363.01883	736.41083	-357.59439	97.64638	703.60742	-318.24161	105.90416	613.11169	-413.33740	59.85009	643.27405	-195.06796	49.10168	652.46021	-198.06630	61.75308	702.68970	-246.80080	39.49143	757.44232
859	7.15000	-370.05759	1018.82922	501.06903	-190.36871	1007.21454	441.88678	-302.19492	600.38336	352.36539	-292.48767	553.75366	355.73126	-242.42854	608.17633	358.95953	-242.56033	561.54938	364.41360	-297.82916	515.03180	354.86636	-286.53806	503.27728	465.89172	-356.62653	410.54782	341.87500	-356.64938	366.12799	338.95114	-294.56879	406.10806	334.59534	-303.27567	362.02350	333.07663	-336.24341	94.94897	378.71817	-301.94971	110.57908	469.75369	-391.88297	58.98337	435.41187	-225.54179	39.85345	340.73425	-149.86360	56.80355	405.83130	-187.17424	44.89499	454.19690	-372.76151	1029.50195	586.55011	-217.65204	1000.83820	678.08167	-324.74182	603.43964	727.66473	-317.37228	560.18298	724.77863	-262.37619	607.18665	721.72284	-265.03604	564.20734	721.18768	-302.78711	519.15106	716.24823	-318.13882	492.38019	602.48163	-375.17548	412.53485	732.13293	-372.02765	366.68127	733.41138	-314.81927	409.03445	732.57019	-318.91040	362.97958	736.43738	-357.57324	97.57249	703.61206	-318.25345	105.92713	613.11945	-413.35101	59.82943	643.27472	-195.07433	49.10520	652.46924	-198.10446	61.75235	702.73352	-246.82751	39.48952	757.45654
860	7.15833	-370.13693	1018.86481	501.15356	-190.49991	1007.19061	441.90268	-302.32632	600.39868	352.37286	-292.64798	553.78418	355.72113	-242.55305	608.17914	358.96515	-242.68535	561.56891	364.41257	-297.89386	515.05420	354.86728	-286.64505	503.21695	465.95001	-356.69101	410.57379	341.87659	-356.70331	366.14243	338.96213	-294.65207	406.12366	334.59995	-303.34192	362.05630	333.08054	-336.24545	94.99870	378.70184	-301.96323	110.55348	469.78406	-391.87469	58.93589	435.44800	-225.51292	39.96109	340.66360	-149.87334	56.78215	405.86417	-187.19914	44.85265	454.23331	-372.82440	1029.53882	586.60828	-217.67204	1000.79376	678.10632	-324.73761	603.41180	727.71472	-317.33258	560.15826	724.83545	-262.44656	607.15442	721.76434	-265.10849	564.16833	721.24146	-302.79538	519.12714	716.28741	-318.16049	492.42325	602.49927	-375.18442	412.51382	732.15912	-372.01694	366.62546	733.45447	-314.91455	408.91861	732.59387	-318.91959	362.96652	736.46674	-357.54770	97.55872	703.64117	-318.21106	105.96873	613.10962	-413.32910	59.80415	643.30707	-195.06949	49.09733	652.51056	-198.12320	61.73288	702.74841	-246.82829	39.48565	757.48517
861	7.16667	-370.30106	1018.96216	501.22604	-190.74774	1007.33911	441.81448	-302.42206	600.41138	352.36057	-292.73987	553.79321	355.71143	-242.63634	608.18079	358.94513	-242.76210	561.57666	364.41043	-297.94366	515.08368	354.85968	-286.79538	503.15958	465.96420	-356.72687	410.58365	341.88202	-356.73471	366.15067	338.94769	-294.71490	406.16440	334.61316	-303.39560	362.08047	333.08582	-336.22092	95.00554	378.69803	-301.98755	110.54782	469.80984	-391.82971	58.95313	435.45309	-225.47528	39.97578	340.68295	-149.86414	56.78659	405.86832	-187.22554	44.82806	454.26056	-372.87061	1029.63196	586.68561	-217.74768	1000.73279	678.14600	-324.77542	603.44434	727.75580	-317.39090	560.19476	724.85907	-262.50739	607.12372	721.81689	-265.15649	564.17126	721.28522	-302.84906	519.14526	716.31140	-318.12805	492.44055	602.51416	-375.22870	412.55133	732.18597	-372.17981	366.69901	733.58289	-315.01773	408.85834	732.62616	-318.98065	362.95175	736.49982	-357.60916	97.59922	703.67157	-318.21741	105.97685	613.10828	-413.03003	59.93400	643.10498	-195.05966	49.07317	652.52936	-198.15257	61.72805	702.78680	-246.83029	39.48827	757.48419
862	7.17500	-370.40475	1019.05322	501.29581	-190.85310	1007.29663	441.78857	-302.48331	600.38525	352.35236	-292.86099	553.78766	355.70099	-242.70241	608.14178	358.93701	-242.88353	561.51715	364.39502	-297.99802	515.06091	354.85617	-286.88074	503.16327	465.96390	-356.77933	410.56058	341.88367	-356.79019	366.14554	338.93750	-294.77805	406.13135	334.60590	-303.46445	362.03784	333.08505	-336.19376	95.01446	378.68176	-301.93222	110.56335	469.80301	-391.85196	58.97032	435.43307	-225.45586	39.97636	340.68271	-149.88715	56.73372	405.86349	-187.22997	44.78727	454.25977	-372.89798	1029.71912	586.73096	-217.78152	1000.68988	678.15796	-324.82230	603.47717	727.78528	-317.40842	560.20941	724.90527	-262.55200	607.10327	721.83051	-265.22061	564.14587	721.29865	-302.87210	519.16492	716.35992	-318.10965	492.43954	602.54645	-375.24280	412.60233	732.23083	-372.19821	366.75229	733.60663	-315.11783	408.79782	732.62213	-318.99850	362.92776	736.49951	-357.60492	97.63457	703.67828	-318.18271	105.95851	613.10181	-412.97485	59.94580	643.08612	-195.07097	49.03650	652.51611	-198.15303	61.68704	702.76257	-246.78432	39.46720	757.47168
863	7.18333	-370.52274	1019.09393	501.37378	-191.00314	1007.20886	441.78571	-302.61038	600.33862	352.37048	-292.99194	553.75964	355.69934	-242.80031	608.06409	358.92776	-242.98912	561.46533	364.37238	-298.09430	515.01770	354.86191	-286.98282	503.11749	465.95642	-356.92526	410.62549	341.77255	-356.86652	366.09286	338.93002	-294.87057	406.07483	334.59958	-303.56784	361.97748	333.07352	-336.17188	94.96972	378.66730	-301.91330	110.52229	469.80273	-391.81110	58.95072	435.41965	-225.45027	39.95199	340.67548	-149.86719	56.69174	405.83829	-187.18748	44.75214	454.22449	-372.94772	1029.74829	586.80200	-217.79733	1000.63867	678.14435	-324.85312	603.45209	727.80804	-317.43845	560.18597	724.93188	-262.58130	607.05981	721.82111	-265.27145	564.07617	721.29437	-302.87061	519.15240	716.38611	-318.13538	492.39691	602.58356	-375.25821	412.57407	732.24622	-372.20010	366.72073	733.63959	-315.16321	408.73120	732.60895	-319.00168	362.89999	736.50336	-357.52972	97.61610	703.69519	-318.12769	105.91448	613.10724	-412.97263	59.92296	643.09015	-195.08449	48.97753	652.48718	-198.13388	61.62210	702.73682	-246.74956	39.42965	757.45929
